<svg width="87" height="45" viewBox="0 0 87 45" fill="none" xmlns="http://www.w3.org/2000/svg">
<path d="M8.15154 19.2799C9.99154 19.2799 11.2515 19.0599 11.9315 18.6199C12.6515 18.1799 13.0115 17.1599 13.0115 15.5599V10.0399C13.0115 9.15992 12.7315 8.43992 12.1715 7.87992C11.6515 7.31992 10.9315 7.03992 10.0115 7.03992C8.93154 7.03992 8.15154 7.37992 7.67154 8.05992C7.23154 8.73992 7.01154 9.39992 7.01154 10.0399V13.5199H0.891541V9.97992C0.891541 8.73992 1.13154 7.55992 1.61154 6.43992C2.09154 5.31992 2.75154 4.35992 3.59154 3.55992C4.43154 2.75992 5.41154 2.11992 6.53154 1.63992C7.65154 1.15992 8.85154 0.919922 10.1315 0.919922C11.8115 0.919922 13.1915 1.25992 14.2715 1.93992C15.3915 2.57992 16.2315 3.23992 16.7915 3.91992C17.1915 4.39992 17.5315 4.87992 17.8115 5.35992C18.1315 5.83992 18.3915 6.41992 18.5915 7.09992C18.9515 8.41992 19.1315 10.3799 19.1315 12.9799C19.1315 14.4599 19.0915 15.6599 19.0115 16.5799C18.9715 17.4999 18.8315 18.2599 18.5915 18.8599C18.3115 19.4999 17.9115 20.0399 17.3915 20.4799C16.9115 20.9199 16.2315 21.3999 15.3515 21.9199C16.3115 22.5199 17.0315 23.0799 17.5115 23.5999C18.0315 24.1199 18.4115 24.7199 18.6515 25.3999C18.8915 26.1199 19.0315 26.9799 19.0715 27.9799C19.1115 28.9399 19.1315 30.1799 19.1315 31.6999C19.1315 33.0999 19.0915 34.2599 19.0115 35.1799C18.9715 36.0999 18.8915 36.8599 18.7715 37.4599C18.6515 38.0999 18.4915 38.6399 18.2915 39.0799C18.0915 39.5199 17.8315 39.9799 17.5115 40.4599C16.7515 41.5799 15.7715 42.5199 14.5715 43.2799C13.4115 43.9999 11.8715 44.3599 9.95154 44.3599C8.99154 44.3599 7.97154 44.1999 6.89154 43.8799C5.81154 43.5599 4.83154 43.0399 3.95154 42.3199C3.07154 41.5999 2.33154 40.6599 1.73154 39.4999C1.17154 38.3399 0.891541 36.9199 0.891541 35.2399V31.7599H7.01154V34.9399C7.01154 35.8999 7.27154 36.6999 7.79154 37.3399C8.35154 37.9399 9.09154 38.2399 10.0115 38.2399C10.9315 38.2399 11.6515 37.9399 12.1715 37.3399C12.7315 36.6999 13.0115 35.8599 13.0115 34.8199V28.6999C13.0115 27.0199 12.6915 25.9199 12.0515 25.3999C11.6915 25.0799 11.1915 24.8799 10.5515 24.7999C9.95154 24.7199 9.15154 24.6799 8.15154 24.6799V19.2799Z" fill="#FF0046"/>
<path d="M41.4558 1.27992V7.03992H29.3358V18.5599C29.8958 17.9999 30.6158 17.5399 31.4958 17.1799C32.3758 16.7799 33.3558 16.5799 34.4358 16.5799C36.5158 16.5799 38.1958 17.2199 39.4758 18.4999C40.7958 19.7399 41.4558 21.6199 41.4558 24.1399V35.1799C41.4558 36.6199 41.1958 37.8999 40.6758 39.0199C40.1958 40.1399 39.5358 41.0999 38.6958 41.8999C37.8558 42.6999 36.8758 43.3199 35.7558 43.7599C34.6758 44.1599 33.5358 44.3599 32.3358 44.3599C31.1358 44.3599 29.9758 44.1599 28.8558 43.7599C27.7758 43.3199 26.8158 42.6999 25.9758 41.8999C25.1358 41.0999 24.4558 40.1399 23.9358 39.0199C23.4558 37.8999 23.2158 36.6199 23.2158 35.1799V33.3799H29.3358V34.9399C29.3358 35.9799 29.6158 36.7999 30.1758 37.3999C30.7758 37.9599 31.5358 38.2399 32.4558 38.2399C33.3758 38.2399 34.0758 37.9599 34.5558 37.3999C35.0758 36.8399 35.3358 36.0599 35.3358 35.0599V25.0399C35.3358 24.1999 35.0558 23.4799 34.4958 22.8799C33.9758 22.2799 33.2958 21.9799 32.4558 21.9799C31.9358 21.9799 31.4958 22.0799 31.1358 22.2799C30.7758 22.4399 30.4758 22.6399 30.2358 22.8799C29.9958 23.1199 29.8158 23.3799 29.6958 23.6599C29.4958 24.0199 29.3758 24.2399 29.3358 24.3199H23.9358V1.27992H41.4558Z" fill="#FF0046"/>
<path d="M45.54 10.0999C45.54 8.65992 45.78 7.37992 46.26 6.25992C46.78 5.13993 47.46 4.17992 48.3 3.37992C49.14 2.57992 50.1 1.97992 51.18 1.57992C52.3 1.13992 53.46 0.919922 54.66 0.919922C55.86 0.919922 57 1.13992 58.08 1.57992C59.2 1.97992 60.18 2.57992 61.02 3.37992C61.86 4.17992 62.52 5.13993 63 6.25992C63.52 7.37992 63.78 8.65992 63.78 10.0999V35.1799C63.78 36.6199 63.52 37.8999 63 39.0199C62.52 40.1399 61.86 41.0999 61.02 41.8999C60.18 42.6999 59.2 43.3199 58.08 43.7599C57 44.1599 55.86 44.3599 54.66 44.3599C53.46 44.3599 52.3 44.1599 51.18 43.7599C50.1 43.3199 49.14 42.6999 48.3 41.8999C47.46 41.0999 46.78 40.1399 46.26 39.0199C45.78 37.8999 45.54 36.6199 45.54 35.1799V10.0999ZM51.66 35.1799C51.66 36.0599 51.94 36.7999 52.5 37.3999C53.06 37.9599 53.78 38.2399 54.66 38.2399C55.54 38.2399 56.26 37.9599 56.82 37.3999C57.38 36.7999 57.66 36.0599 57.66 35.1799V10.0999C57.66 9.21992 57.38 8.49992 56.82 7.93992C56.26 7.33992 55.54 7.03992 54.66 7.03992C53.78 7.03992 53.06 7.33992 52.5 7.93992C51.94 8.49992 51.66 9.21992 51.66 10.0999V35.1799Z" fill="#FF0046"/>
<path d="M67.8642 10.0999C67.8642 8.65992 68.1042 7.37992 68.5842 6.25992C69.1042 5.13993 69.7842 4.17992 70.6242 3.37992C71.4642 2.57992 72.4242 1.97992 73.5042 1.57992C74.6242 1.13992 75.7842 0.919922 76.9842 0.919922C78.1842 0.919922 79.3242 1.13992 80.4042 1.57992C81.5242 1.97992 82.5042 2.57992 83.3442 3.37992C84.1842 4.17992 84.8442 5.13993 85.3242 6.25992C85.8442 7.37992 86.1042 8.65992 86.1042 10.0999V35.1799C86.1042 36.6199 85.8442 37.8999 85.3242 39.0199C84.8442 40.1399 84.1842 41.0999 83.3442 41.8999C82.5042 42.6999 81.5242 43.3199 80.4042 43.7599C79.3242 44.1599 78.1842 44.3599 76.9842 44.3599C75.7842 44.3599 74.6242 44.1599 73.5042 43.7599C72.4242 43.3199 71.4642 42.6999 70.6242 41.8999C69.7842 41.0999 69.1042 40.1399 68.5842 39.0199C68.1042 37.8999 67.8642 36.6199 67.8642 35.1799V10.0999ZM73.9842 35.1799C73.9842 36.0599 74.2642 36.7999 74.8242 37.3999C75.3842 37.9599 76.1042 38.2399 76.9842 38.2399C77.8642 38.2399 78.5842 37.9599 79.1442 37.3999C79.7042 36.7999 79.9842 36.0599 79.9842 35.1799V10.0999C79.9842 9.21992 79.7042 8.49992 79.1442 7.93992C78.5842 7.33992 77.8642 7.03992 76.9842 7.03992C76.1042 7.03992 75.3842 7.33992 74.8242 7.93992C74.2642 8.49992 73.9842 9.21992 73.9842 10.0999V35.1799Z" fill="#FF0046"/>
</svg>
