<svg width="74" height="74" viewBox="0 0 74 74" fill="none" xmlns="http://www.w3.org/2000/svg">
<path fill-rule="evenodd" clip-rule="evenodd" d="M37 72C56.33 72 72 56.33 72 37C72 17.67 56.33 2 37 2C17.67 2 2 17.67 2 37C2 56.33 17.67 72 37 72Z" fill="white" stroke="#FF0046" stroke-width="3"/>
<path fill-rule="evenodd" clip-rule="evenodd" d="M50.8078 27.7894L40.6842 60.9473L60.9474 27.7894H50.8078Z" fill="#FF0046"/>
<path fill-rule="evenodd" clip-rule="evenodd" d="M23.1921 27.7894H13.0526L33.3158 60.9473L23.1921 27.7894Z" fill="#FF0046"/>
<path fill-rule="evenodd" clip-rule="evenodd" d="M25.9474 25.9474H48.0527L44.1197 18.579H29.8485L25.9474 25.9474Z" fill="#FF0046"/>
<path fill-rule="evenodd" clip-rule="evenodd" d="M23.7647 25.9474L27.7895 18.579H21.1532L13.0526 25.9474H23.7647Z" fill="#FF0046"/>
<path fill-rule="evenodd" clip-rule="evenodd" d="M50.264 25.9474H60.9474L52.8731 18.579H46.2105L50.264 25.9474Z" fill="#FF0046"/>
<path fill-rule="evenodd" clip-rule="evenodd" d="M48.0527 27.7894H25.9474L37.0087 62.7894L48.0527 27.7894Z" fill="#FF0046"/>
</svg>
