<svg width="66" height="65" viewBox="0 0 66 65" fill="none" xmlns="http://www.w3.org/2000/svg">
<path fill-rule="evenodd" clip-rule="evenodd" d="M56.2687 5.35389H50.8978V0H47.3182V5.35389H18.6818V0H15.1023V5.35389H9.73457C4.79957 5.35389 0.784119 9.35662 0.784119 14.276V55.3119C0.784119 60.2313 4.79957 64.234 9.73457 64.234H56.2687C61.2037 64.234 65.2191 60.2313 65.2191 55.3119V23.1949V19.6267V14.2728C65.2159 9.35345 61.2005 5.35389 56.2687 5.35389ZM61.6364 55.3093C61.6364 58.259 59.2277 60.6601 56.2687 60.6601H9.73456C6.77228 60.6601 4.36365 58.259 4.36365 55.3093V23.1948H61.6364V55.3093ZM4.36365 19.6267H61.6364V14.2728C61.6364 11.3199 59.2277 8.92204 56.2687 8.92204H50.8977V12.4903H47.3182V8.92204H18.6818V12.4871H15.1055V8.91887H9.73456C6.77228 8.91887 4.36365 11.3199 4.36365 14.2728V19.6267Z" fill="#FF0046"/>
<path d="M28.8986 56.1265L33.5386 44.1665L33.4586 44.0865C33.3253 44.1932 33.112 44.2865 32.8186 44.3665C32.552 44.4198 32.192 44.4465 31.7386 44.4465C31.0186 44.4465 30.352 44.2732 29.7386 43.9265C29.1253 43.5798 28.6453 43.1398 28.2986 42.6065C28.112 42.3398 27.9653 42.0598 27.8586 41.7665C27.752 41.4465 27.672 41.0465 27.6186 40.5665C27.5386 40.0865 27.4853 39.4865 27.4586 38.7665C27.432 38.0198 27.4186 37.0865 27.4186 35.9665C27.4186 35.0332 27.432 34.2732 27.4586 33.6865C27.4853 33.0732 27.5386 32.5532 27.6186 32.1265C27.672 31.7265 27.752 31.3798 27.8586 31.0865C27.992 30.7932 28.152 30.4865 28.3386 30.1665C28.872 29.2865 29.5786 28.6065 30.4586 28.1265C31.3653 27.6465 32.3786 27.4065 33.4986 27.4065C34.6186 27.4065 35.6186 27.6598 36.4986 28.1665C37.3786 28.6465 38.0853 29.3132 38.6186 30.1665C38.8053 30.4865 38.9653 30.7932 39.0986 31.0865C39.232 31.3798 39.3386 31.7265 39.4186 32.1265C39.472 32.5532 39.512 33.0732 39.5386 33.6865C39.5653 34.2732 39.5786 35.0332 39.5786 35.9665C39.5786 36.8465 39.5653 37.5798 39.5386 38.1665C39.512 38.7265 39.472 39.2065 39.4186 39.6065C39.3386 40.0332 39.2453 40.4198 39.1386 40.7665C39.0586 41.0865 38.952 41.4332 38.8186 41.8065L33.4586 56.1265H28.8986ZM31.4986 38.8065C31.4986 39.4198 31.6986 39.9132 32.0986 40.2865C32.4986 40.6598 32.9653 40.8465 33.4986 40.8465C34.032 40.8465 34.4986 40.6598 34.8986 40.2865C35.2986 39.9132 35.4986 39.4198 35.4986 38.8065V33.5265C35.4986 32.9132 35.2986 32.4198 34.8986 32.0465C34.4986 31.6732 34.032 31.4865 33.4986 31.4865C32.9653 31.4865 32.4986 31.6732 32.0986 32.0465C31.6986 32.4198 31.4986 32.9132 31.4986 33.5265V38.8065Z" fill="#FF0046"/>
</svg>
