<svg width="329" height="80" viewBox="0 0 329 80" fill="none" xmlns="http://www.w3.org/2000/svg">
<path id="hike" fill-rule="evenodd" clip-rule="evenodd" d="M86.7 80C86.7449 80 86.7897 79.9994 86.8342 79.9981L86.8962 79.9992C86.9306 79.9997 86.9652 80 87 80C88.6 80 90.4 79.1 91.2 77.7L109.9 46.9V69.1C109.9 77 115.1 80 122.2 80H165.4C166.065 80 166.68 79.8579 167.218 79.6002C167.766 79.8647 168.378 80 169 80C171.1 80 173.1 78.7 173.1 76V4C173.1 1.3 171.2 0 169.1 0C167.2 0 165.1 1.4 165.1 4V72H122.3C120.2 72 118 71.6 118 68.9V41.4C118 38.2 115.9 35.8 112.7 35.8C108.8 35.8 106.7 37.4 105 40.2L85.1606 72H45.8C41.9 72 39.6 71.9 39.6 66.8V46.1C39.6 40.4 37.2 35.8 30.9 35.8C25.1 35.8 21.8 39 19 43.7L8 62.5V4C8 1.7 6.3 0 4 0C1.7 0 0 1.7 0 4V76C0 78.1 0.8 80 3.4 80C5.1 80 6.8 79.1 7.5 78L26.1 47.5C26.2368 47.2606 26.3671 47.0251 26.494 46.7957C27.4804 45.013 28.2622 43.6 30.3 43.6C31.5 43.6 31.6 44.6 31.6 46.1V66.8C31.6 76.6 36.3 80 45.8 80H86.7ZM252.898 76.0385C252.842 78.0871 251.541 80 248.9 80H207.3C198.5 80 194.8 76 194.8 68.3V62.3C194.8 62.2777 194.801 62.248 194.801 62.2117C194.814 61.5968 194.866 59.1 192.6 59.1H183.9C176.8 59.1 173.7 51 179 46.6L195.2 33.4C196.1 32.6 196.9 32 198.4 32C200.1 32 202.2 33.6 202.2 36.3C202.2 37.2 201.6 38.5 200.9 39L186 51.1H193.5C199.6 51.1 202.8 56.6 202.8 62.3V68.3C202.8 69.7 202.9 72 207.1 72H248.9C249.001 72 249.1 72.003 249.197 72.0089C247.487 69.3356 246.6 66.1706 246.6 62.8V42C246.6 36.7 250.7 35.8 252.9 35.8H273.4C278.8 35.8 283.4 37.5 283.4 43.8C283.4 46.7 282.1 49.8 280.2 52L268.9 64.6C268.2 65.4 267.2 65.8 266.1 65.8C263.9 65.8 262 64 262 61.8C262 61 262.5 59.8 263.5 58.7L273.6 47.6C274.2 46.9 274.6 46 274.6 45.5C274.6 43.7317 272.958 43.7614 271.265 43.792C271.043 43.796 270.82 43.8 270.6 43.8H254.7V62.9C254.7 68.3 260.1 72 265.2 72H324.1C326.5 72 328.2 73.7 328.2 76C328.2 78.3 326.5 80 324.1 80H265.9C260.474 80 256.101 78.5063 252.898 76.0385ZM125.8 14.1C125.8 21.5 119.8 27.5 112.3 27.5C104.9 27.5 98.9 21.5 98.9 14.1C98.9 6.6 104.9 0.6 112.3 0.6C119.8 0.6 125.8 6.6 125.8 14.1ZM118.1 14.1C118.1 10.9 115.5 8.3 112.3 8.3C109.2 8.3 106.6 10.9 106.6 14C106.6 17.2 109.2 19.8 112.3 19.8C115.5 19.8 118.1 17.2 118.1 14.1Z" fill="#002B5D"/>
</svg>
