<svg width="132" height="71" viewBox="0 0 132 71" fill="none" xmlns="http://www.w3.org/2000/svg">
<path fill-rule="evenodd" clip-rule="evenodd" d="M63.4468 44.6903C60.6008 44.4603 57.6465 43.8779 56.8762 43.7197L53.6039 44.8214C55.2504 46.6383 56.1166 49.7051 56.5287 51.7021L63.2149 49.4514C63.0295 48.6354 62.9239 47.7823 62.9239 47.0068C62.9239 45.9526 63.1199 45.2081 63.4468 44.6903Z" fill="#FF0046"/>
<path fill-rule="evenodd" clip-rule="evenodd" d="M46.6295 66.6039C46.7959 68.5468 48.4245 70.0129 50.3398 70.0129C50.4463 70.0129 50.5543 70.0081 50.6624 69.9989C52.714 69.8234 54.2345 68.018 54.0586 65.9674L53.7062 61.8559C50.2682 61.2364 47.7808 60.3405 46.0037 59.3042L46.6295 66.6039Z" fill="#FF0046"/>
<path fill-rule="evenodd" clip-rule="evenodd" d="M52.3128 45.2561L47.7844 46.7807C46.1556 47.3289 45.1129 48.9192 45.2599 50.6308L45.8734 57.7865C47.6414 59.0181 50.2305 59.9655 53.5984 60.5999L52.9392 52.9105L55.3624 52.0948C54.9552 50.0689 54.0507 46.7484 52.3128 45.2561Z" fill="#FF0046"/>
<path fill-rule="evenodd" clip-rule="evenodd" d="M48.9815 24.8423C48.3207 23.3287 47.6375 21.7641 48.3019 20.3506C48.5493 19.8242 48.9602 19.3621 49.5488 18.9511L48.0435 18.6666C47.1113 18.4914 46.1605 18.872 45.6093 19.6441C45.0578 20.4166 45.0058 21.4388 45.476 22.263L49.6386 29.5635C50.3818 28.0542 49.6958 26.4782 48.9815 24.8423Z" fill="#FF0046"/>
<path fill-rule="evenodd" clip-rule="evenodd" d="M82.821 20.3503C83.4854 21.7638 82.8021 23.3285 82.1414 24.8422C81.4337 26.4632 80.7523 28.0249 81.463 29.5217L85.613 22.1241C86.0775 21.2962 86.0181 20.2746 85.4615 19.506C84.9045 18.7375 83.9507 18.363 83.0206 18.5452L81.4347 18.8565C82.0987 19.2906 82.5544 19.7835 82.821 20.3503Z" fill="#FF0046"/>
<path fill-rule="evenodd" clip-rule="evenodd" d="M85.863 50.6311C86.0097 48.9194 84.967 47.3288 83.3384 46.7809L78.81 45.2563C77.0725 46.7483 76.1677 50.0691 75.7607 52.0951L78.184 52.9107L77.5247 60.6001C80.8927 59.9655 83.4817 59.0184 85.2497 57.7868L85.863 50.6311Z" fill="#FF0046"/>
<path fill-rule="evenodd" clip-rule="evenodd" d="M74.2469 43.72C73.476 43.8782 70.522 44.4605 67.6766 44.6905C68.0035 45.2083 68.1992 45.9528 68.1992 47.0067C68.1992 47.7823 68.0939 48.6354 67.9082 49.4513L74.5942 51.7021C75.0063 49.7051 75.8724 46.6386 77.519 44.8213L74.2469 43.72Z" fill="#FF0046"/>
<path fill-rule="evenodd" clip-rule="evenodd" d="M77.0643 65.9674C76.8883 68.018 78.4089 69.8234 80.4605 69.9989C80.5688 70.0081 80.6763 70.0129 80.7831 70.0129C82.6981 70.0129 84.3272 68.5465 84.4934 66.6039L85.1191 59.3044C83.3417 60.3407 80.8543 61.2367 77.4167 61.8561L77.0643 65.9674Z" fill="#FF0046"/>
<path fill-rule="evenodd" clip-rule="evenodd" d="M65.5614 43.5684C68.5264 43.5684 72.5453 42.8181 73.7928 42.5701V40.1003H70.1443V39.5526L73.7928 39.0993V37.6283H68.6901V36.8777L73.7928 36.2439V35.2323H67.5269V34.3196L73.7928 33.5413V25.3166L78.789 24.3363L74.4825 32.0131C73.8248 33.1856 74.2423 34.6688 75.415 35.3266C75.7918 35.5378 76.2005 35.6382 76.6038 35.6379C77.4559 35.6379 78.2832 35.19 78.7296 34.3941L80.941 30.4523C79.5839 28.426 80.5134 26.2893 81.3047 24.4772C81.9107 23.0889 82.4832 21.7776 81.9947 20.7386C81.7062 20.1244 81.0567 19.5934 80.0252 19.1328L72.8457 20.5415L71.1794 30.7444L70.4185 29.6795V20.8965H60.7046V29.6795L59.9438 30.7444L58.2875 20.6029L50.9293 19.2119C49.9965 19.6543 49.4008 20.159 49.1285 20.7386C48.6403 21.7779 49.2125 23.0892 49.8187 24.4772C50.6137 26.2981 51.5486 28.447 50.1623 30.4821L52.4443 34.4848C52.8932 35.2725 53.7156 35.7142 54.562 35.7139C54.9707 35.7139 55.3849 35.6111 55.7654 35.3942C56.9335 34.7285 57.341 33.2422 56.6751 32.0745L52.3156 24.4279L57.3309 25.3759V33.5407L63.5965 34.319V35.2317H57.33V36.2433L62.4324 36.8771V37.6276H57.33V39.099L60.9782 39.5523V40.1H57.33V42.5698C58.5775 42.8178 62.5965 43.5684 65.5614 43.5684Z" fill="#FF0046"/>
<path fill-rule="evenodd" clip-rule="evenodd" d="M58.7139 12.3178C58.7139 11.367 58.908 10.4616 59.2583 9.63892H71.865C72.2153 10.4619 72.4095 11.367 72.4095 12.3178C72.4095 16.0987 69.3441 19.1633 65.5617 19.1633C61.7799 19.1633 58.7139 16.0987 58.7139 12.3178ZM60.305 11.3098C60.305 11.6881 60.6115 11.9946 60.9898 11.9946C61.3681 11.9946 61.6745 11.6881 61.6745 11.3098C61.6745 10.9315 61.3681 10.625 60.9898 10.625C60.6115 10.625 60.305 10.9315 60.305 11.3098ZM63.2754 11.9946C62.8971 11.9946 62.5907 11.6881 62.5907 11.3098C62.5907 10.9315 62.8971 10.625 63.2754 10.625C63.6537 10.625 63.9602 10.9315 63.9602 11.3098C63.9602 11.6881 63.6537 11.9946 63.2754 11.9946ZM64.8766 11.3098C64.8766 11.6881 65.1831 11.9946 65.5614 11.9946C65.9394 11.9946 66.2462 11.6881 66.2462 11.3098C66.2462 10.9315 65.9397 10.625 65.5614 10.625C65.1831 10.625 64.8766 10.9315 64.8766 11.3098ZM67.847 11.9946C67.4687 11.9946 67.1623 11.6881 67.1623 11.3098C67.1623 10.9315 67.4687 10.625 67.847 10.625C68.2254 10.625 68.5318 10.9315 68.5318 11.3098C68.5318 11.6881 68.2254 11.9946 67.847 11.9946ZM69.4482 11.3098C69.4482 11.6881 69.7547 11.9946 70.133 11.9946C70.511 11.9946 70.8178 11.6881 70.8178 11.3098C70.8178 10.9315 70.5113 10.625 70.133 10.625C69.7547 10.625 69.4482 10.9315 69.4482 11.3098Z" fill="#FF0046"/>
<path fill-rule="evenodd" clip-rule="evenodd" d="M65.5614 5.47192C63.228 5.47192 61.1681 6.63964 59.9319 8.42163H71.1915C69.955 6.63964 67.8955 5.47192 65.5614 5.47192Z" fill="#FF0046"/>
<path fill-rule="evenodd" clip-rule="evenodd" d="M91.8759 66.6039C92.0424 68.5468 93.671 70.0129 95.5862 70.0129C95.6927 70.0129 95.8008 70.0081 95.9088 69.9989C97.9604 69.8234 99.481 68.018 99.305 65.9674L98.9526 61.8559C95.5147 61.2364 93.0273 60.3405 91.2502 59.3042L91.8759 66.6039Z" fill="#FF0046"/>
<path fill-rule="evenodd" clip-rule="evenodd" d="M108.693 44.6903C105.847 44.4603 102.893 43.8779 102.122 43.7197L98.8501 44.8214C100.497 46.6383 101.363 49.7051 101.775 51.7021L108.461 49.4514C108.276 48.6354 108.17 47.7823 108.17 47.0068C108.171 45.9526 108.366 45.2081 108.693 44.6903Z" fill="#FF0046"/>
<path fill-rule="evenodd" clip-rule="evenodd" d="M97.5596 45.2561L93.0313 46.7807C91.4024 47.3289 90.3597 48.9192 90.5067 50.6308L91.1203 57.7865C92.8882 59.0181 95.4773 59.9655 98.8452 60.5999L98.186 52.9105L100.609 52.0948C100.202 50.0689 99.2972 46.7484 97.5596 45.2561Z" fill="#FF0046"/>
<path fill-rule="evenodd" clip-rule="evenodd" d="M92.8958 14.4231L93.0264 16.6746C93.069 17.4064 93.4388 18.0801 94.0338 18.5085L95.5184 19.5781C95.4901 17.8017 95.0439 16.408 94.1786 15.4215C93.7836 14.9717 93.3371 14.6531 92.8958 14.4231Z" fill="#FF0046"/>
<path fill-rule="evenodd" clip-rule="evenodd" d="M127.43 15.4308C126.57 16.4167 126.126 17.8074 126.098 19.5784L127.583 18.5088C128.177 18.0803 128.547 17.4066 128.59 16.6748L128.721 14.4248C128.275 14.6567 127.825 14.9777 127.43 15.4308Z" fill="#FF0046"/>
<path fill-rule="evenodd" clip-rule="evenodd" d="M131.109 50.6311C131.256 48.9194 130.213 47.3288 128.585 46.7809L124.056 45.2563C122.319 46.7483 121.414 50.0691 121.007 52.0951L123.43 52.9107L122.771 60.6001C126.139 59.9655 128.728 59.0184 130.496 57.7868L131.109 50.6311Z" fill="#FF0046"/>
<path fill-rule="evenodd" clip-rule="evenodd" d="M119.493 43.72C118.722 43.8782 115.768 44.4605 112.923 44.6905C113.25 45.2084 113.446 45.9529 113.446 47.0068C113.446 47.7823 113.341 48.6355 113.155 49.4518L119.841 51.7026C120.253 49.7055 121.119 46.639 122.766 44.8217L119.493 43.72Z" fill="#FF0046"/>
<path fill-rule="evenodd" clip-rule="evenodd" d="M122.311 65.9674C122.135 68.018 123.655 69.8234 125.707 69.9989C125.815 70.0081 125.923 70.0129 126.03 70.0129C127.945 70.0129 129.574 68.5465 129.74 66.6039L130.366 59.3044C128.588 60.3407 126.101 61.2367 122.663 61.8561L122.311 65.9674Z" fill="#FF0046"/>
<path fill-rule="evenodd" clip-rule="evenodd" d="M110.808 43.5684C113.773 43.5684 117.792 42.8181 119.04 42.5701V40.1003H115.391V39.5526L119.04 39.0993V37.6283H113.937V36.8777L119.04 36.244V35.2324H112.774V34.3196L119.04 33.5414V24.6629L125.193 20.2301C125.11 17.9123 125.631 16.0978 126.751 14.8203C127.377 14.1065 128.103 13.6642 128.781 13.387L129.401 2.67942C129.479 1.3374 128.454 0.186743 127.111 0.108856C125.771 0.0242765 124.618 1.05567 124.54 2.39769L123.795 15.2365L118.104 19.3365L116.426 30.7448L115.665 29.6799V20.8967H105.951V29.6796L105.19 30.7445L103.512 19.3362L97.8204 15.2365L97.076 2.39769C96.9981 1.05567 95.8428 0.0251892 94.5043 0.108856C93.1618 0.186743 92.1367 1.3374 92.2143 2.67942L92.8352 13.387C93.513 13.6642 94.2386 14.1065 94.8646 14.8203C95.9849 16.0978 96.5053 17.9123 96.4232 20.2301L102.576 24.6632V33.5411L108.842 34.3193V35.2321H102.576V36.2437L107.679 36.8774V37.628H102.576V39.099L106.225 39.5523V40.1H102.576V42.5698C103.824 42.8178 107.843 43.5684 110.808 43.5684Z" fill="#FF0046"/>
<path fill-rule="evenodd" clip-rule="evenodd" d="M110.808 5.47192C108.475 5.47192 106.415 6.63964 105.179 8.42163H116.438C115.202 6.63964 113.142 5.47192 110.808 5.47192Z" fill="#FF0046"/>
<path fill-rule="evenodd" clip-rule="evenodd" d="M103.96 12.3178C103.96 11.367 104.155 10.4616 104.505 9.63892H117.112C117.462 10.4619 117.656 11.367 117.656 12.3178C117.656 16.0987 114.591 19.1633 110.808 19.1633C107.026 19.1633 103.96 16.0987 103.96 12.3178ZM105.552 11.3098C105.552 11.6881 105.858 11.9946 106.237 11.9946C106.615 11.9946 106.921 11.6881 106.921 11.3098C106.921 10.9315 106.615 10.625 106.237 10.625C105.858 10.625 105.552 10.9315 105.552 11.3098ZM108.522 11.9946C108.144 11.9946 107.837 11.6881 107.837 11.3098C107.837 10.9315 108.144 10.625 108.522 10.625C108.901 10.625 109.207 10.9315 109.207 11.3098C109.207 11.6881 108.901 11.9946 108.522 11.9946ZM110.123 11.3098C110.123 11.6881 110.43 11.9946 110.808 11.9946C111.186 11.9946 111.493 11.6881 111.493 11.3098C111.493 10.9315 111.186 10.625 110.808 10.625C110.43 10.625 110.123 10.9315 110.123 11.3098ZM113.094 11.9946C112.716 11.9946 112.409 11.6881 112.409 11.3098C112.409 10.9315 112.716 10.625 113.094 10.625C113.472 10.625 113.779 10.9315 113.779 11.3098C113.779 11.6881 113.472 11.9946 113.094 11.9946ZM114.695 11.3098C114.695 11.6881 115.001 11.9946 115.38 11.9946C115.758 11.9946 116.064 11.6881 116.064 11.3098C116.064 10.9315 115.758 10.625 115.38 10.625C115.001 10.625 114.695 10.9315 114.695 11.3098Z" fill="#FF0046"/>
<path fill-rule="evenodd" clip-rule="evenodd" d="M7.06666 45.2563L2.53858 46.7806C0.909708 47.3288 -0.132987 48.9191 0.0140125 50.6308L0.627578 57.7865C2.39553 59.0181 4.98462 59.9652 8.35253 60.5999L7.69331 52.9105L10.1165 52.0948C9.70901 50.0688 8.80449 46.7483 7.06666 45.2563Z" fill="#FF0046"/>
<path fill-rule="evenodd" clip-rule="evenodd" d="M1.38331 66.6039C1.54979 68.5468 3.17835 70.0129 5.09362 70.0129C5.20014 70.0129 5.30818 70.0081 5.41622 69.9989C7.46784 69.8234 8.98836 68.018 8.81245 65.9674L8.46001 61.8561C5.02209 61.2367 2.53496 60.3407 0.757568 59.3044L1.38331 66.6039Z" fill="#FF0046"/>
<path fill-rule="evenodd" clip-rule="evenodd" d="M18.2006 44.6903C15.355 44.4603 12.4004 43.8782 11.6301 43.7197L8.35773 44.8214C10.0042 46.6383 10.8704 49.7051 11.2825 51.7021L17.9687 49.4514C17.7834 48.6354 17.6778 47.7823 17.6778 47.0068C17.6778 45.9526 17.8738 45.2081 18.2006 44.6903Z" fill="#FF0046"/>
<path fill-rule="evenodd" clip-rule="evenodd" d="M2.40283 14.4229L2.5334 16.6746C2.57601 17.4064 2.94579 18.0801 3.54079 18.5085L5.0254 19.5781C4.99709 17.8014 4.55092 16.408 3.68566 15.4215C3.29092 14.9718 2.84444 14.6532 2.40283 14.4229Z" fill="#FF0046"/>
<path fill-rule="evenodd" clip-rule="evenodd" d="M36.9372 15.4308C36.0771 16.4167 35.6337 17.8071 35.6053 19.5784L37.0896 18.5088C37.6843 18.0803 38.0544 17.4066 38.097 16.6748L38.2276 14.4248C37.7823 14.6567 37.3325 14.9777 36.9372 15.4308Z" fill="#FF0046"/>
<path fill-rule="evenodd" clip-rule="evenodd" d="M29.0007 43.72C28.2298 43.8782 25.2758 44.4605 22.4304 44.6905C22.7573 45.2083 22.9533 45.9528 22.9533 47.0067C22.9533 47.7823 22.848 48.6354 22.6623 49.4513L29.3482 51.7021C29.7606 49.7051 30.6265 46.6386 32.273 44.8213L29.0007 43.72Z" fill="#FF0046"/>
<path fill-rule="evenodd" clip-rule="evenodd" d="M31.818 65.9674C31.6421 68.018 33.1627 69.8234 35.2143 69.9989C35.3226 70.0081 35.43 70.0129 35.5369 70.0129C37.4518 70.0129 39.081 68.5465 39.2472 66.6039L39.8732 59.3044C38.0958 60.3407 35.6084 61.2367 32.1708 61.8561L31.818 65.9674Z" fill="#FF0046"/>
<path fill-rule="evenodd" clip-rule="evenodd" d="M40.6167 50.6311C40.7634 48.9194 39.7207 47.3288 38.0922 46.7809L33.5638 45.2563C31.8263 46.7483 30.9214 50.0691 30.5145 52.0951L32.9377 52.9107L32.2785 60.6001C35.6464 59.9655 38.2358 59.0184 40.0035 57.7868L40.6167 50.6311Z" fill="#FF0046"/>
<path fill-rule="evenodd" clip-rule="evenodd" d="M20.3152 43.5684C23.2802 43.5684 27.2991 42.8181 28.5466 42.5701V40.1003H24.8981V39.5526L28.5466 39.0993V37.6283H23.4442V36.8777L28.5469 36.244V35.2324H22.2807V34.3196L28.5466 33.5414V24.6629L34.6996 20.23C34.6175 17.9123 35.1376 16.0978 36.2582 14.8203C36.8843 14.1065 37.6098 13.6641 38.2876 13.387L38.9088 2.67938C38.9864 1.33736 37.9613 0.186706 36.6189 0.10882C35.2785 0.0242396 34.125 1.05563 34.0471 2.39765L33.3027 15.2365L27.6117 19.3362L25.9332 30.7444L25.1723 29.6796V20.8966H15.4585V29.6796L14.6976 30.7444L13.0191 19.3362L7.32781 15.2362L6.58337 2.39735C6.50546 1.05532 5.35016 0.0248481 4.01164 0.108515C2.66916 0.186402 1.64411 1.33706 1.72172 2.67908L2.34259 13.387C3.02037 13.6641 3.74594 14.1062 4.37198 14.8203C5.49259 16.0978 6.01272 17.9126 5.93055 20.23L12.0839 24.6629V33.5411L18.3495 34.3193V35.2321H12.0842V36.2437L17.1866 36.8774V37.628H12.0842V39.099L15.7324 39.5523V40.1H12.0842V42.5698C13.3314 42.8178 17.3506 43.5684 20.3152 43.5684Z" fill="#FF0046"/>
<path fill-rule="evenodd" clip-rule="evenodd" d="M20.3156 5.47192C17.9821 5.47192 15.9223 6.63964 14.6857 8.42163H25.9454C24.7091 6.63964 22.6493 5.47192 20.3156 5.47192Z" fill="#FF0046"/>
<path fill-rule="evenodd" clip-rule="evenodd" d="M13.4677 12.3178C13.4677 11.367 13.6619 10.4616 14.0122 9.63892H26.6189C26.9692 10.4619 27.1634 11.367 27.1634 12.3178C27.1634 16.0987 24.098 19.1633 20.3155 19.1633C16.5337 19.1633 13.4677 16.0987 13.4677 12.3178ZM15.0588 11.3098C15.0588 11.6881 15.3653 11.9946 15.7436 11.9946C16.1219 11.9946 16.4284 11.6881 16.4284 11.3098C16.4284 10.9315 16.1219 10.625 15.7436 10.625C15.3653 10.625 15.0588 10.9315 15.0588 11.3098ZM18.0296 11.9946C17.6513 11.9946 17.3448 11.6881 17.3448 11.3098C17.3448 10.9315 17.6513 10.625 18.0296 10.625C18.4079 10.625 18.7144 10.9315 18.7144 11.3098C18.7144 11.6881 18.4076 11.9946 18.0296 11.9946ZM19.6304 11.3098C19.6304 11.6881 19.9369 11.9946 20.3152 11.9946C20.6935 11.9946 21 11.6881 21 11.3098C21 10.9315 20.6935 10.625 20.3152 10.625C19.9369 10.625 19.6304 10.9315 19.6304 11.3098ZM22.6012 11.9946C22.2229 11.9946 21.9164 11.6881 21.9164 11.3098C21.9164 10.9315 22.2229 10.625 22.6012 10.625C22.9795 10.625 23.286 10.9315 23.286 11.3098C23.286 11.6881 22.9792 11.9946 22.6012 11.9946ZM24.2021 11.3098C24.2021 11.6881 24.5085 11.9946 24.8868 11.9946C25.2651 11.9946 25.5716 11.6881 25.5716 11.3098C25.5716 10.9315 25.2651 10.625 24.8868 10.625C24.5085 10.625 24.2021 10.9315 24.2021 11.3098Z" fill="#FF0046"/>
</svg>
